REM DIRINDEX 1\2\4,1\2\5,1\3\6,1\3\7,1\3\8
REM DIRNAME folder01,folder02,folder03,folder04,folder05,folder06,folder07,folder08
TITLE ""
FILE "LEVEL3-002-midashigo.mp3" MP3
  TRACK 01 AUDIO
    TITLE "0:"
    INDEX 01 00:00:00
  TRACK 02 AUDIO
    TITLE "6:cjc092_1799"
    INDEX 01 00:00:05
  TRACK 03 AUDIO
    TITLE "0:"
    INDEX 01 00:02:40
  TRACK 04 AUDIO
    TITLE "7:cjc092_1800"
    INDEX 01 00:03:15
  TRACK 05 AUDIO
    TITLE "8:cjc092_1801"
    INDEX 01 00:04:42
  TRACK 06 AUDIO
    TITLE "0:"
    INDEX 01 00:11:64
  TRACK 07 AUDIO
    TITLE "7:cjc092_1802"
    INDEX 01 00:12:20
  TRACK 08 AUDIO
    TITLE "8:cjc092_1803"
    INDEX 01 00:13:51
  TRACK 09 AUDIO
    TITLE "0:"
    INDEX 01 00:16:59
  TRACK 10 AUDIO
    TITLE "7:cjc092_1804"
    INDEX 01 00:17:20
  TRACK 11 AUDIO
    TITLE "8:cjc092_1805"
    INDEX 01 00:18:60
  TRACK 12 AUDIO
    TITLE "0:"
    INDEX 01 00:20:51
  TRACK 13 AUDIO
    TITLE "7:cjc092_1806"
    INDEX 01 00:21:02
  TRACK 14 AUDIO
    TITLE "8:cjc092_1807"
    INDEX 01 00:22:42
  TRACK 15 AUDIO
    TITLE "0:"
    INDEX 01 00:26:01
  TRACK 16 AUDIO
    TITLE "7:cjc092_1808"
    INDEX 01 00:26:38
  TRACK 17 AUDIO
    TITLE "8:cjc092_1809"
    INDEX 01 00:27:63
  TRACK 18 AUDIO
    TITLE "0:"
    INDEX 01 00:29:72
  TRACK 19 AUDIO
    TITLE "7:cjc092_1810"
    INDEX 01 00:30:34
  TRACK 20 AUDIO
    TITLE "8:cjc092_1811"
    INDEX 01 00:31:67
  TRACK 21 AUDIO
    TITLE "0:"
    INDEX 01 00:33:73
  TRACK 22 AUDIO
    TITLE "7:cjc092_1812"
    INDEX 01 00:34:32
  TRACK 23 AUDIO
    TITLE "8:cjc092_1813"
    INDEX 01 00:35:61
  TRACK 24 AUDIO
    TITLE "0:"
    INDEX 01 00:38:08
  TRACK 25 AUDIO
    TITLE "7:cjc092_1814"
    INDEX 01 00:38:43
  TRACK 26 AUDIO
    TITLE "8:cjc092_1815"
    INDEX 01 00:39:70
  TRACK 27 AUDIO
    TITLE "0:"
    INDEX 01 00:42:49
  TRACK 28 AUDIO
    TITLE "7:cjc092_1816"
    INDEX 01 00:43:11
  TRACK 29 AUDIO
    TITLE "8:cjc092_1817"
    INDEX 01 00:44:38
  TRACK 30 AUDIO
    TITLE "0:"
    INDEX 01 00:47:60
  TRACK 31 AUDIO
    TITLE "7:cjc092_1818"
    INDEX 01 00:48:22
  TRACK 32 AUDIO
    TITLE "8:cjc092_1819"
    INDEX 01 00:49:51
  TRACK 33 AUDIO
    TITLE "0:"
    INDEX 01 00:52:28
  TRACK 34 AUDIO
    TITLE "7:cjc092_1820"
    INDEX 01 00:52:61
  TRACK 35 AUDIO
    TITLE "8:cjc092_1821"
    INDEX 01 00:54:17
  TRACK 36 AUDIO
    TITLE "0:"
    INDEX 01 00:55:46
  TRACK 37 AUDIO
    TITLE "7:cjc092_1822"
    INDEX 01 00:56:08
  TRACK 38 AUDIO
    TITLE "8:cjc092_1823"
    INDEX 01 00:57:33
  TRACK 39 AUDIO
    TITLE "0:"
    INDEX 01 00:58:42
  TRACK 40 AUDIO
    TITLE "7:cjc092_1824"
    INDEX 01 00:59:00
  TRACK 41 AUDIO
    TITLE "8:cjc092_1825"
    INDEX 01 01:00:31
  TRACK 42 AUDIO
    TITLE "0:"
    INDEX 01 01:02:38
  TRACK 43 AUDIO
    TITLE "7:cjc092_1826"
    INDEX 01 01:02:73
  TRACK 44 AUDIO
    TITLE "8:cjc092_1827"
    INDEX 01 01:04:23
  TRACK 45 AUDIO
    TITLE "0:"
    INDEX 01 01:05:64
  TRACK 46 AUDIO
    TITLE "7:cjc092_1828"
    INDEX 01 01:06:24
  TRACK 47 AUDIO
    TITLE "8:cjc092_1829"
    INDEX 01 01:07:59
  TRACK 48 AUDIO
    TITLE "0:"
    INDEX 01 01:09:69
  TRACK 49 AUDIO
    TITLE "7:cjc092_1830"
    INDEX 01 01:10:18
  TRACK 50 AUDIO
    TITLE "8:cjc092_1831"
    INDEX 01 01:11:51
  TRACK 51 AUDIO
    TITLE "0:"
    INDEX 01 01:13:67
  TRACK 52 AUDIO
    TITLE "7:cjc092_1832"
    INDEX 01 01:14:25
  TRACK 53 AUDIO
    TITLE "8:cjc092_1833"
    INDEX 01 01:15:58
  TRACK 54 AUDIO
    TITLE "0:"
    INDEX 01 01:19:01
  TRACK 55 AUDIO
    TITLE "7:cjc092_1834"
    INDEX 01 01:19:34
  TRACK 56 AUDIO
    TITLE "8:cjc092_1835"
    INDEX 01 01:21:00
  TRACK 57 AUDIO
    TITLE "0:"
    INDEX 01 01:23:09
  TRACK 58 AUDIO
    TITLE "7:cjc092_1836"
    INDEX 01 01:23:44
  TRACK 59 AUDIO
    TITLE "8:cjc092_1837"
    INDEX 01 01:24:73
  TRACK 60 AUDIO
    TITLE "0:"
    INDEX 01 01:27:14
